HIERARCHY
ROOT joint_Root
{
	OFFSET 0.0 0.0 0.0
	CHANNELS 6 Xposition Yposition Zposition Zrotation Xrotation Yrotation 
	JOINT Hips
	{
		OFFSET 4.5925 91.4895 -427.239
		CHANNELS 6 Xposition Yposition Zposition Zrotation Xrotation Yrotation 
		JOINT Spine
		{
			OFFSET 15.7357 0.0 0.0
			CHANNELS 6 Xposition Yposition Zposition Zrotation Xrotation Yrotation 
			JOINT Chest
			{
				OFFSET 8.98455 -0.406207 0.0
				CHANNELS 6 Xposition Yposition Zposition Zrotation Xrotation Yrotation 
				JOINT Neck
				{
					OFFSET 16.3773 0.0 0.0
					CHANNELS 6 Xposition Yposition Zposition Zrotation Xrotation Yrotation 
					JOINT Head
					{
						OFFSET 6.45672 0.0 0.0
						CHANNELS 6 Xposition Yposition Zposition Zrotation Xrotation Yrotation 
						End Site
						{
							OFFSET 0.0 0.0 0.0
						}
					}
				}
				JOINT Shoulder_L
				{
					OFFSET 12.9942 -0.242716 4.98039
					CHANNELS 6 Xposition Yposition Zposition Zrotation Xrotation Yrotation 
					JOINT UpperArm_L
					{
						OFFSET 5.34809 0.0 0.0
						CHANNELS 6 Xposition Yposition Zposition Zrotation Xrotation Yrotation 
						JOINT LowerArm_L
						{
							OFFSET 24.3286 1.87007e-05 0.0
							CHANNELS 6 Xposition Yposition Zposition Zrotation Xrotation Yrotation 
							JOINT Hand_L
							{
								OFFSET 22.2916 0.0 0.0
								CHANNELS 6 Xposition Yposition Zposition Zrotation Xrotation Yrotation 
								End Site
								{
									OFFSET 0.0 0.0 0.0
								}
							}
						}
					}
				}
				JOINT Shoulder_R
				{
					OFFSET 12.9945 -0.242716 -4.98039
					CHANNELS 6 Xposition Yposition Zposition Zrotation Xrotation Yrotation 
					JOINT UpperArm_R
					{
						OFFSET -5.34813 0.0 0.0
						CHANNELS 6 Xposition Yposition Zposition Zrotation Xrotation Yrotation 
						JOINT LowerArm_R
						{
							OFFSET -24.3289 0.000322201 0.0
							CHANNELS 6 Xposition Yposition Zposition Zrotation Xrotation Yrotation 
							JOINT Hand_R
							{
								OFFSET -22.2915 -0.000108084 0.0
								CHANNELS 6 Xposition Yposition Zposition Zrotation Xrotation Yrotation 
								End Site
								{
									OFFSET 0.0 0.0 0.0
								}
							}
						}
					}
				}
			}
		}
		JOINT UpperLeg_L
		{
			OFFSET -2.19248 -6.46944 0.0
			CHANNELS 6 Xposition Yposition Zposition Zrotation Xrotation Yrotation 
			JOINT LowerLeg_L
			{
				OFFSET 39.0811 0.0 -1.23785e-05
				CHANNELS 6 Xposition Yposition Zposition Zrotation Xrotation Yrotation 
				JOINT Foot_L
				{
					OFFSET 40.9854 0.0 -1.26872e-05
					CHANNELS 6 Xposition Yposition Zposition Zrotation Xrotation Yrotation 
					JOINT Toes_L
					{
						OFFSET 11.7543 0.0 0.0
						CHANNELS 6 Xposition Yposition Zposition Zrotation Xrotation Yrotation 
						End Site
						{
							OFFSET 0.0 0.0 0.0
						}
					}
				}
			}
		}
		JOINT UpperLeg_R
		{
			OFFSET -2.19251 6.46944 0.0
			CHANNELS 6 Xposition Yposition Zposition Zrotation Xrotation Yrotation 
			JOINT LowerLeg_R
			{
				OFFSET -39.0811 -0.00228153 -0.0401928
				CHANNELS 6 Xposition Yposition Zposition Zrotation Xrotation Yrotation 
				JOINT Foot_R
				{
					OFFSET -40.9854 0.0 0.0
					CHANNELS 6 Xposition Yposition Zposition Zrotation Xrotation Yrotation 
					JOINT Toes_R
					{
						OFFSET -11.7543 0.0 0.0
						CHANNELS 6 Xposition Yposition Zposition Zrotation Xrotation Yrotation 
						End Site
						{
							OFFSET 0.0 0.0 0.0
						}
					}
				}
			}
		}
	}
}
MOTION
Frames:	9
Frame Time:	0.0333333
0.000000 0.000000 0.000000 0.000000 0.000000 -0.000000 2.341950 78.867100 1.191810 92.409500 -6.296050 13.011600 15.735700 0.000005 -0.000001 99.187000 79.862200 -100.949000 8.984550 -0.406207 -0.000000 12.314100 3.137890 -3.863160 16.377300 -0.000001 -0.000001 -2.240480 -6.749360 1.871860 6.456720 -0.000001 -0.000000 -5.573920 -12.327400 9.198590 12.994200 -0.242716 4.980390 -92.660800 7.638750 -70.730000 5.348090 -0.000007 -0.000001 -68.049800 16.567600 -13.861600 24.328600 0.000019 0.000005 -0.671805 -2.259630 -16.564900 22.291600 -0.000001 0.000005 20.651100 5.094410 5.241240 12.994500 -0.242716 -4.980390 89.301000 5.879710 -83.208600 -5.348130 -0.000001 -0.000004 -65.633900 28.597100 -6.207720 -24.328900 0.000322 -0.000009 -4.751570 -9.433730 -26.885600 -22.291500 -0.000108 -0.000004 21.455400 5.420720 -3.623240 -2.192480 -6.469440 -0.000000 -178.852000 -13.841800 -14.331200 39.081100 -0.000007 -0.000012 -0.652318 0.247460 69.226900 40.985400 -0.000006 -0.000013 2.196660 1.098680 -92.114800 11.754300 -0.000000 0.000003 -0.000584 -0.004534 -16.742200 -2.192510 6.469440 -0.000001 170.047000 8.985960 163.510000 -39.081100 -0.002282 -0.040193 0.085649 -0.027757 71.416200 -40.985400 0.000008 0.000006 5.886580 7.046420 -91.049400 -11.754300 -0.000006 -0.000006 -0.929061 -1.136390 -17.624100
0.000000 0.000000 0.000000 0.000000 0.000000 -0.000000 3.745110 80.839000 1.963120 93.393100 -8.817830 12.278000 15.735700 0.000005 -0.000001 100.015000 80.826700 -100.412000 8.984550 -0.406207 -0.000000 10.323600 3.160560 -1.078040 16.377300 -0.000001 -0.000001 -2.051470 -6.230150 2.663360 6.456720 -0.000001 -0.000000 -4.754830 -10.782500 7.729710 12.994200 -0.242716 4.980390 -92.443300 6.788620 -70.151900 5.348090 -0.000007 -0.000001 -68.131800 13.583400 -9.862300 24.328600 0.000019 0.000005 0.435514 1.724940 -14.174000 22.291600 -0.000001 0.000005 20.202200 5.091590 5.305680 12.994500 -0.242716 -4.980390 89.276800 5.518620 -82.522600 -5.348130 -0.000001 -0.000004 -64.740700 26.477200 -5.989040 -24.328900 0.000322 -0.000009 -4.565820 -10.088100 -24.503400 -22.291500 -0.000108 -0.000004 21.930900 5.417780 -3.524470 -2.192480 -6.469440 -0.000000 179.011000 -15.575900 -11.841700 39.081100 -0.000007 -0.000012 -0.589224 0.295217 63.389200 40.985400 -0.000006 -0.000013 2.376510 -0.401400 -89.974300 11.754300 -0.000000 0.000003 -0.000506 -0.004019 -16.724400 -2.192510 6.469440 -0.000001 168.434000 6.831000 164.887000 -39.081100 -0.002282 -0.040193 0.059028 -0.024620 66.219900 -40.985400 0.000008 0.000006 4.994870 8.653810 -88.823700 -11.754300 -0.000006 -0.000006 -0.659640 -0.807844 -17.522200
0.000000 0.000000 0.000000 0.000000 0.000000 -0.000000 4.990720 83.382200 2.803120 94.029800 -11.717600 11.120000 15.735700 0.000005 -0.000001 102.261000 81.956500 -100.906000 8.984550 -0.406207 -0.000000 7.925530 3.403630 2.471440 16.377300 -0.000001 -0.000001 -1.084430 -5.476800 3.525100 6.456720 -0.000001 -0.000000 -3.940130 -8.667830 4.938630 12.994200 -0.242716 4.980390 -91.849800 5.005740 -69.689000 5.348090 -0.000007 -0.000001 -64.617100 7.063810 -7.439230 24.328600 0.000019 0.000005 1.403180 6.392470 -12.407300 22.291600 -0.000001 0.000005 21.052700 5.065170 5.900750 12.994500 -0.242716 -4.980390 89.329200 4.532170 -81.571400 -5.348130 -0.000001 -0.000004 -64.242900 22.449600 -4.928370 -24.328900 0.000322 -0.000009 -4.165620 -9.621750 -23.539700 -22.291500 -0.000108 -0.000004 21.493100 5.407640 -3.187510 -2.192480 -6.469440 -0.000000 177.245000 -17.352100 -8.834910 39.081100 -0.000007 -0.000012 -0.477740 0.330409 55.333000 40.985400 -0.000006 -0.000013 2.454690 -1.808290 -86.663900 11.754300 -0.000000 0.000003 -0.000488 -0.003901 -16.720300 -2.192510 6.469440 -0.000001 167.330000 5.105310 166.679000 -39.081100 -0.002282 -0.040193 0.034310 -0.018698 58.987300 -40.985400 0.000008 0.000006 4.147260 10.538200 -85.264300 -11.754300 -0.000006 -0.000006 -0.414436 -0.512469 -17.641200
0.000000 0.000000 0.000000 0.000000 0.000000 -0.000000 5.910680 85.940700 3.559860 94.591800 -14.261200 9.578140 15.735700 0.000005 -0.000001 106.339000 83.100200 -103.178000 8.984550 -0.406207 -0.000000 5.388330 3.807880 6.137540 16.377300 -0.000001 -0.000001 0.660553 -4.398800 3.837240 6.456720 -0.000001 -0.000000 -3.526840 -6.654580 1.732580 12.994200 -0.242716 4.980390 -91.004000 2.641910 -69.182700 5.348090 -0.000007 -0.000001 -58.243800 -6.880180 -8.194790 24.328600 0.000019 0.000005 0.987668 5.074580 -11.028400 22.291600 -0.000001 0.000005 21.590900 4.993610 7.454860 12.994500 -0.242716 -4.980390 89.337000 3.983950 -80.544400 -5.348130 -0.000001 -0.000004 -62.290100 18.391700 -3.310720 -24.328900 0.000322 -0.000009 -4.577050 -10.118900 -24.491700 -22.291500 -0.000108 -0.000004 20.348600 5.402650 -3.023860 -2.192480 -6.469440 -0.000000 175.901000 -19.558000 -5.715920 39.081100 -0.000007 -0.000012 -0.340895 0.328445 46.066400 40.985400 -0.000006 -0.000013 2.884630 -2.032110 -82.617300 11.754300 -0.000000 0.000003 -0.000350 -0.002961 -16.687300 -2.192510 6.469440 -0.000001 166.442000 4.317190 168.530000 -39.081100 -0.002282 -0.040193 0.020157 -0.013719 50.952200 -40.985400 0.000008 0.000006 3.677660 12.397300 -81.193000 -11.754300 -0.000006 -0.000006 -0.103400 -0.151036 -17.981000
0.000000 0.000000 0.000000 0.000000 0.000000 -0.000000 6.275050 87.981100 4.067500 94.609600 -15.112300 8.008570 15.735700 0.000005 -0.000001 107.997000 84.251000 -103.410000 8.984550 -0.406207 -0.000000 3.056090 3.360910 9.076840 16.377300 -0.000001 -0.000001 2.694700 -3.658920 4.345770 6.456720 -0.000001 -0.000000 -3.100410 -5.610570 -0.243063 12.994200 -0.242716 4.980390 -90.049100 0.127219 -68.911500 5.348090 -0.000007 -0.000001 -47.485200 -18.477300 -11.727800 24.328600 0.000019 0.000005 0.355744 1.673450 -12.001700 22.291600 -0.000001 0.000005 21.281100 4.971800 7.913300 12.994500 -0.242716 -4.980390 89.098500 4.769880 -79.285100 -5.348130 -0.000001 -0.000004 -58.663400 16.650700 -2.336520 -24.328900 0.000322 -0.000009 -5.246190 -11.215200 -25.267200 -22.291500 -0.000108 -0.000004 19.318100 5.414290 -3.407880 -2.192480 -6.469440 -0.000000 175.423000 -21.745000 -2.984460 39.081100 -0.000007 -0.000012 0.032163 -0.041447 37.810200 40.985400 -0.000006 -0.000013 5.794200 -0.894694 -78.918700 11.754300 -0.000000 0.000003 -1.274270 -1.658850 -15.616600 -2.192510 6.469440 -0.000001 166.378000 4.745840 170.595000 -39.081100 -0.002282 -0.040193 0.014011 -0.011281 43.600900 -40.985400 0.000008 0.000006 3.250220 13.372900 -77.494600 -11.754300 -0.000006 -0.000006 -0.096819 -0.145598 -18.099600
0.000000 0.000000 0.000000 0.000000 0.000000 -0.000000 5.977820 89.279800 4.356630 94.021200 -13.621500 6.774590 15.735700 0.000005 -0.000001 103.741000 85.220700 -98.360400 8.984550 -0.406207 -0.000000 1.450150 1.973660 10.726600 16.377300 -0.000001 -0.000001 3.631300 -3.997050 4.792540 6.456720 -0.000001 -0.000000 -2.786320 -5.637890 -0.473729 12.994200 -0.242716 4.980390 -89.203000 -2.144950 -69.610700 5.348090 -0.000007 -0.000001 -33.049400 -28.496800 -16.296000 24.328600 0.000019 0.000005 -0.406543 -1.489020 -15.273000 22.291600 -0.000001 0.000005 18.900400 5.052060 6.191250 12.994500 -0.242716 -4.980390 88.563600 6.467220 -77.449500 -5.348130 -0.000001 -0.000004 -54.806200 16.306700 -2.374400 -24.328900 0.000322 -0.000009 -4.920060 -10.713000 -24.843400 -22.291500 -0.000108 -0.000004 19.257600 5.415870 -3.460430 -2.192480 -6.469440 -0.000000 176.754000 -22.320200 -1.631930 39.081100 -0.000007 -0.000012 0.013555 -0.020429 33.562100 40.985400 -0.000006 -0.000013 4.966860 3.100220 -75.211800 11.754300 -0.000000 0.000003 -0.400981 -0.523788 -17.311600 -2.192510 6.469440 -0.000001 167.271000 6.175840 172.961000 -39.081100 -0.002282 -0.040193 0.016873 -0.017305 38.143800 -40.985400 0.000008 0.000006 3.192240 12.737900 -75.102300 -11.754300 -0.000006 -0.000006 -0.109090 -0.160112 -18.120700
0.000000 0.000000 0.000000 0.000000 0.000000 -0.000000 5.335770 89.895500 4.374700 93.076300 -10.623000 5.927790 15.735700 0.000005 -0.000001 94.021200 85.854600 -88.489800 8.984550 -0.406207 -0.000000 0.517331 0.232293 11.053600 16.377300 -0.000001 -0.000001 3.441410 -5.313190 4.780190 6.456720 -0.000001 -0.000000 -2.602020 -6.842970 0.450333 12.994200 -0.242716 4.980390 -87.858000 -6.211160 -70.929600 5.348090 -0.000007 -0.000001 -17.676800 -36.714100 -18.985600 24.328600 0.000019 0.000005 -2.290870 -5.962980 -21.060000 22.291600 -0.000001 0.000005 17.945300 5.163150 3.626730 12.994500 -0.242716 -4.980390 88.022900 7.748310 -75.638000 -5.348130 -0.000001 -0.000004 -53.170600 15.102300 -1.982990 -24.328900 0.000322 -0.000009 -4.117660 -9.255400 -24.108000 -22.291500 -0.000108 -0.000004 20.463000 5.400530 -2.954950 -2.192480 -6.469440 -0.000000 178.497000 -20.990700 -0.988311 39.081100 -0.000007 -0.000012 -0.003965 0.006464 31.531700 40.985400 -0.000006 -0.000013 4.072750 6.584870 -74.056500 11.754300 -0.000000 0.000003 0.290978 0.357616 -16.869100 -2.192510 6.469440 -0.000001 168.623000 8.479560 175.005000 -39.081100 -0.002282 -0.040193 0.022155 -0.027109 34.831500 -40.985400 0.000008 0.000006 3.347800 11.519100 -74.190900 -11.754300 -0.000006 -0.000006 -0.002349 -0.033000 -17.915000
0.000000 0.000000 0.000000 0.000000 0.000000 -0.000000 4.825850 90.086500 4.039870 92.014900 -8.043660 5.305150 15.735700 0.000005 -0.000001 89.378700 86.044000 -84.107300 8.984550 -0.406207 -0.000000 0.187285 -0.433559 10.536500 16.377300 -0.000001 -0.000001 2.592590 -6.509340 3.435820 6.456720 -0.000001 -0.000000 -2.504100 -9.114710 2.926310 12.994200 -0.242716 4.980390 -85.699800 -12.582700 -70.957100 5.348090 -0.000007 -0.000001 -4.722840 -44.392500 -20.120300 24.328600 0.000019 0.000005 -3.064570 -5.195990 -30.592700 22.291600 -0.000001 0.000005 21.449200 5.213980 2.366770 12.994500 -0.242716 -4.980390 87.925000 7.717050 -74.900500 -5.348130 -0.000001 -0.000004 -54.678700 11.419400 -0.026864 -24.328900 0.000322 -0.000009 -3.794050 -8.633630 -23.828200 -22.291500 -0.000108 -0.000004 21.633600 5.390680 -2.636980 -2.192480 -6.469440 -0.000000 179.432000 -18.981100 -1.280700 39.081100 -0.000007 -0.000012 -0.000352 0.000596 30.621300 40.985400 -0.000006 -0.000013 4.913600 6.821130 -74.047100 11.754300 -0.000000 0.000003 -0.335041 -0.436667 -17.191000 -2.192510 6.469440 -0.000001 169.688000 11.674700 175.969000 -39.081100 -0.002282 -0.040193 0.020296 -0.025954 33.226400 -40.985400 0.000008 0.000006 3.564000 12.032500 -73.926100 -11.754300 -0.000006 -0.000006 -0.001983 -0.028508 -17.732300
0.000000 0.000000 0.000000 0.000000 0.000000 -0.000000 4.435700 90.142900 3.594020 90.774500 -6.129140 4.847880 15.735700 0.000005 -0.000001 89.155900 86.057000 -84.213100 8.984550 -0.406207 -0.000000 0.157494 -0.443622 9.879830 16.377300 -0.000001 -0.000001 2.273930 -6.751840 0.339140 6.456720 -0.000001 -0.000000 -2.458160 -11.796600 6.501140 12.994200 -0.242716 4.980390 -82.580500 -18.376000 -67.556000 5.348090 -0.000007 -0.000001 0.693903 -56.369800 -25.800800 24.328600 0.000019 0.000005 -0.374346 -0.411489 -42.352200 22.291600 -0.000001 0.000005 25.781900 5.205100 2.590700 12.994500 -0.242716 -4.980390 88.181900 6.907670 -75.215000 -5.348130 -0.000001 -0.000004 -57.152600 7.852010 2.503470 -24.328900 0.000322 -0.000009 -3.703020 -8.609680 -23.374000 -22.291500 -0.000108 -0.000004 21.661500 5.381220 -2.336880 -2.192480 -6.469440 -0.000000 -179.678000 -16.219100 -2.181930 39.081100 -0.000007 -0.000012 -0.144270 0.242152 30.785900 40.985400 -0.000006 -0.000013 3.762650 5.476530 -74.331700 11.754300 -0.000000 0.000003 -0.000123 -0.001231 -16.624500 -2.192510 6.469440 -0.000001 170.495000 15.943900 176.435000 -39.081100 -0.002282 -0.040193 0.011503 -0.012926 32.410000 -40.985400 0.000008 0.000006 4.082720 14.453500 -73.623600 -11.754300 -0.000006 -0.000006 -0.001955 -0.028147 -17.717600
